<svg width="64" height="51" viewBox="0 0 64 51" fill="none" xmlns="http://www.w3.org/2000/svg">
<g clip-path="url(#clip0_1_2)">
<path d="M2.10786 50.9549C0.551519 50.9431 -0.462481 49.4278 0.212584 48.1222L24.5182 1.11874C24.872 0.434845 25.6152 0 26.4306 0H60.3078C61.4798 0 62.4302 0.884547 62.4302 1.97568V6.60989C62.4302 7.69792 61.4853 8.58116 60.3163 8.58552L40.9274 8.65774V20.9881L57.4042 20.9172C58.5798 20.9121 59.5362 21.7982 59.5362 22.8929V27.2512C59.5362 28.3386 58.5918 29.2217 57.4237 29.2268L40.9274 29.2976V42.4323L60.2994 42.36C61.4747 42.3557 62.4302 43.2415 62.4302 44.3356V48.9543C62.4302 50.0453 61.4798 50.93 60.3078 50.93H33.8626C32.6954 50.93 31.7475 50.0524 31.7403 48.9662L31.6664 37.6072H16.5014L10.0838 49.8884C9.72581 50.5735 8.97664 51.0059 8.15832 51L2.10786 50.9549Z" fill="white"/>
</g>
<defs>
<clipPath id="clip0_1_2">
<rect width="64" height="51" fill="white"/>
</clipPath>
</defs>
</svg>
