<svg width="64" height="64" viewBox="0 0 64 64" fill="none" xmlns="http://www.w3.org/2000/svg">
<rect x="1" y="1" width="62" height="62" rx="7" fill="#4834F7"/>
<rect x="1" y="1" width="62" height="62" rx="7" stroke="#27169C" stroke-width="2"/>
<path d="M25.1136 27.9091C25.0152 27.5076 24.8598 27.1553 24.6477 26.8523C24.4356 26.5417 24.1705 26.2803 23.8523 26.0682C23.5417 25.8485 23.178 25.6856 22.7614 25.5795C22.3523 25.4659 21.9015 25.4091 21.4091 25.4091C20.3485 25.4091 19.4432 25.6629 18.6932 26.1705C17.9508 26.678 17.3826 27.4091 16.9886 28.3636C16.6023 29.3182 16.4091 30.4697 16.4091 31.8182C16.4091 33.1818 16.5947 34.3485 16.9659 35.3182C17.3371 36.2879 17.8902 37.0303 18.625 37.5455C19.3598 38.0606 20.2727 38.3182 21.3636 38.3182C22.3258 38.3182 23.125 38.178 23.7614 37.8977C24.4053 37.6174 24.8864 37.2197 25.2045 36.7045C25.5227 36.1894 25.6818 35.5833 25.6818 34.8864L26.7727 35H21.4545V30.5H31.7727V33.7273C31.7727 35.8485 31.322 37.6629 30.4205 39.1705C29.5265 40.6705 28.2917 41.822 26.7159 42.625C25.1477 43.4205 23.3485 43.8182 21.3182 43.8182C19.053 43.8182 17.0644 43.3371 15.3523 42.375C13.6402 41.4129 12.303 40.0417 11.3409 38.2614C10.3864 36.4811 9.90909 34.3636 9.90909 31.9091C9.90909 29.9848 10.2008 28.2803 10.7841 26.7955C11.375 25.3106 12.1932 24.0568 13.2386 23.0341C14.2841 22.0038 15.4924 21.2273 16.8636 20.7045C18.2348 20.1742 19.7045 19.9091 21.2727 19.9091C22.6515 19.9091 23.9318 20.1061 25.1136 20.5C26.303 20.8864 27.3523 21.4394 28.2614 22.1591C29.178 22.8712 29.9167 23.7159 30.4773 24.6932C31.0379 25.6705 31.3788 26.7424 31.5 27.9091H25.1136ZM34.7188 43.5V20.2273H44.7642C46.4915 20.2273 48.0028 20.5417 49.2983 21.1705C50.5938 21.7992 51.6013 22.7045 52.321 23.8864C53.0407 25.0682 53.4006 26.4848 53.4006 28.1364C53.4006 29.803 53.0294 31.2083 52.2869 32.3523C51.5521 33.4962 50.518 34.3598 49.1847 34.9432C47.8589 35.5265 46.3097 35.8182 44.5369 35.8182H38.5369V30.9091H43.2642C44.0066 30.9091 44.6392 30.8182 45.1619 30.6364C45.6922 30.447 46.0975 30.1477 46.3778 29.7386C46.6657 29.3295 46.8097 28.7955 46.8097 28.1364C46.8097 27.4697 46.6657 26.928 46.3778 26.5114C46.0975 26.0871 45.6922 25.7765 45.1619 25.5795C44.6392 25.375 44.0066 25.2727 43.2642 25.2727H41.0369V43.5H34.7188ZM48.3551 32.8182L54.1733 43.5H47.3097L41.6278 32.8182H48.3551Z" fill="white"/>
</svg>
