<svg width="64" height="64" viewBox="0 0 64 64" fill="none" xmlns="http://www.w3.org/2000/svg">
<rect x="1" y="1" width="62" height="62" rx="7" fill="#0033A5"/>
<rect x="1" y="1" width="62" height="62" rx="7" stroke="#498DFF" stroke-width="2"/>
<path d="M26.0455 27.5C25.9848 26.7424 25.7008 26.1515 25.1932 25.7273C24.6932 25.303 23.9318 25.0909 22.9091 25.0909C22.2576 25.0909 21.7235 25.1705 21.3068 25.3295C20.8977 25.4811 20.5947 25.6894 20.3977 25.9545C20.2008 26.2197 20.0985 26.5227 20.0909 26.8636C20.0758 27.1439 20.125 27.3977 20.2386 27.625C20.3598 27.8447 20.5492 28.0455 20.8068 28.2273C21.0644 28.4015 21.3939 28.5606 21.7955 28.7045C22.197 28.8485 22.6742 28.9773 23.2273 29.0909L25.1364 29.5C26.4242 29.7727 27.5265 30.1326 28.4432 30.5795C29.3598 31.0265 30.1098 31.553 30.6932 32.1591C31.2765 32.7576 31.7045 33.4318 31.9773 34.1818C32.2576 34.9318 32.4015 35.75 32.4091 36.6364C32.4015 38.1667 32.0189 39.4621 31.2614 40.5227C30.5038 41.5833 29.4205 42.3902 28.0114 42.9432C26.6098 43.4962 24.9242 43.7727 22.9545 43.7727C20.9318 43.7727 19.1667 43.4735 17.6591 42.875C16.1591 42.2765 14.9924 41.3561 14.1591 40.1136C13.3333 38.8636 12.9167 37.2652 12.9091 35.3182H18.9091C18.947 36.0303 19.125 36.6288 19.4432 37.1136C19.7614 37.5985 20.2083 37.9659 20.7841 38.2159C21.3674 38.4659 22.0606 38.5909 22.8636 38.5909C23.5379 38.5909 24.1023 38.5076 24.5568 38.3409C25.0114 38.1742 25.3561 37.9432 25.5909 37.6477C25.8258 37.3523 25.947 37.0152 25.9545 36.6364C25.947 36.2803 25.8295 35.9697 25.6023 35.7045C25.3826 35.4318 25.0189 35.1894 24.5114 34.9773C24.0038 34.7576 23.3182 34.553 22.4545 34.3636L20.1364 33.8636C18.0758 33.4167 16.4508 32.6705 15.2614 31.625C14.0795 30.572 13.4924 29.1364 13.5 27.3182C13.4924 25.8409 13.8864 24.5492 14.6818 23.4432C15.4848 22.3295 16.5947 21.4621 18.0114 20.8409C19.4356 20.2197 21.0682 19.9091 22.9091 19.9091C24.7879 19.9091 26.4129 20.2235 27.7841 20.8523C29.1553 21.4811 30.2121 22.3674 30.9545 23.5114C31.7045 24.6477 32.0833 25.9773 32.0909 27.5H26.0455ZM34.8125 43.5V20.2273H41.1307V38.4091H50.5398V43.5H34.8125Z" fill="white"/>
</svg>
